<svg width="1108" height="323" viewBox="0 0 1108 323" fill="none" xmlns="http://www.w3.org/2000/svg">
<path d="M0 23.6406C0 10.9381 10.2975 0.640625 23 0.640625H1085C1097.7 0.640625 1108 10.9381 1108 23.6406V132.641C1108 237.575 1022.93 322.641 918 322.641H23C10.2975 322.641 0 312.343 0 299.641V23.6406Z" fill="#FE328C"/>
<path d="M136.458 162.986C131.808 162.986 127.685 162.304 124.089 160.94C120.555 159.638 117.796 157.716 115.812 155.174C113.828 152.694 112.836 149.656 112.836 146.06C112.836 143.642 113.208 141.534 113.952 139.736C114.758 137.938 115.75 136.388 116.928 135.086C118.106 133.722 119.346 132.451 120.648 131.273C121.95 130.095 123.19 128.979 124.368 127.925C125.608 126.871 126.6 125.724 127.344 124.484C128.088 123.244 128.46 121.818 128.46 120.206H142.503C142.503 122.376 142.162 124.267 141.48 125.879C140.798 127.491 139.899 128.948 138.783 130.25C137.729 131.49 136.551 132.668 135.249 133.784C134.009 134.9 132.831 135.985 131.715 137.039C130.661 138.031 129.793 139.085 129.111 140.201C128.429 141.317 128.088 142.557 128.088 143.921C128.088 145.905 128.987 147.548 130.785 148.85C132.645 150.152 135.063 150.803 138.039 150.803C141.015 150.803 143.65 150.183 145.944 148.943C148.238 147.765 150.098 146.091 151.524 143.921L162.777 150.524C160.297 154.368 156.856 157.406 152.454 159.638C148.114 161.87 142.782 162.986 136.458 162.986ZM135.435 113.696C132.893 113.696 130.785 112.89 129.111 111.278C127.437 109.666 126.6 107.713 126.6 105.419C126.6 103.063 127.437 101.048 129.111 99.3736C130.785 97.6996 132.893 96.8626 135.435 96.8626C138.101 96.8626 140.24 97.6996 141.852 99.3736C143.526 101.048 144.363 103.063 144.363 105.419C144.363 107.713 143.526 109.666 141.852 111.278C140.24 112.89 138.101 113.696 135.435 113.696ZM170.484 147.641V82.5406H198.663C204.491 82.5406 209.513 83.5016 213.729 85.4236C217.945 87.2836 221.2 89.9806 223.494 93.5146C225.788 97.0486 226.935 101.265 226.935 106.163C226.935 110.999 225.788 115.184 223.494 118.718C221.2 122.252 217.945 124.98 213.729 126.902C209.513 128.762 204.491 129.692 198.663 129.692H178.854L185.55 122.903V147.641H170.484ZM185.55 124.577L178.854 117.416H197.826C202.476 117.416 205.948 116.424 208.242 114.44C210.536 112.456 211.683 109.697 211.683 106.163C211.683 102.567 210.536 99.7766 208.242 97.7926C205.948 95.8086 202.476 94.8166 197.826 94.8166H178.854L185.55 87.6556V124.577ZM260.385 148.385C255.053 148.385 250.31 147.269 246.156 145.037C242.064 142.805 238.809 139.767 236.391 135.923C234.035 132.017 232.857 127.584 232.857 122.624C232.857 117.602 234.035 113.169 236.391 109.325C238.809 105.419 242.064 102.381 246.156 100.211C250.31 97.9786 255.053 96.8626 260.385 96.8626C265.655 96.8626 270.367 97.9786 274.521 100.211C278.675 102.381 281.93 105.388 284.286 109.232C286.642 113.076 287.82 117.54 287.82 122.624C287.82 127.584 286.642 132.017 284.286 135.923C281.93 139.767 278.675 142.805 274.521 145.037C270.367 147.269 265.655 148.385 260.385 148.385ZM260.385 136.481C262.803 136.481 264.973 135.923 266.895 134.807C268.817 133.691 270.336 132.11 271.452 130.064C272.568 127.956 273.126 125.476 273.126 122.624C273.126 119.71 272.568 117.23 271.452 115.184C270.336 113.138 268.817 111.557 266.895 110.441C264.973 109.325 262.803 108.767 260.385 108.767C257.967 108.767 255.797 109.325 253.875 110.441C251.953 111.557 250.403 113.138 249.225 115.184C248.109 117.23 247.551 119.71 247.551 122.624C247.551 125.476 248.109 127.956 249.225 130.064C250.403 132.11 251.953 133.691 253.875 134.807C255.797 135.923 257.967 136.481 260.385 136.481ZM297.517 147.641V97.6066H311.374V111.743L309.421 107.651C310.909 104.117 313.296 101.451 316.582 99.6526C319.868 97.7926 323.867 96.8626 328.579 96.8626V110.255C327.959 110.193 327.401 110.162 326.905 110.162C326.409 110.1 325.882 110.069 325.324 110.069C321.356 110.069 318.132 111.216 315.652 113.51C313.234 115.742 312.025 119.245 312.025 124.019V147.641H297.517ZM385.204 148.385C380.492 148.385 376.245 147.331 372.463 145.223C368.681 143.115 365.674 140.139 363.442 136.295C361.272 132.451 360.187 127.894 360.187 122.624C360.187 117.416 361.272 112.89 363.442 109.046C365.674 105.202 368.681 102.226 372.463 100.118C376.245 97.9476 380.492 96.8626 385.204 96.8626C389.606 96.8626 393.357 97.7926 396.457 99.6526C399.619 101.513 402.037 104.334 403.711 108.116C405.385 111.898 406.222 116.734 406.222 122.624C406.222 128.452 405.354 133.288 403.618 137.132C401.882 140.914 399.433 143.735 396.271 145.595C393.109 147.455 389.42 148.385 385.204 148.385ZM387.715 136.481C390.071 136.481 392.21 135.923 394.132 134.807C396.054 133.691 397.573 132.11 398.689 130.064C399.867 127.956 400.456 125.476 400.456 122.624C400.456 119.71 399.867 117.23 398.689 115.184C397.573 113.138 396.054 111.557 394.132 110.441C392.21 109.325 390.071 108.767 387.715 108.767C385.297 108.767 383.127 109.325 381.205 110.441C379.283 111.557 377.733 113.138 376.555 115.184C375.439 117.23 374.881 119.71 374.881 122.624C374.881 125.476 375.439 127.956 376.555 130.064C377.733 132.11 379.283 133.691 381.205 134.807C383.127 135.923 385.297 136.481 387.715 136.481ZM400.177 165.683V137.504L401.107 122.717L400.828 107.837V97.6066H414.685V165.683H400.177ZM449.228 148.385C445.074 148.385 441.354 147.579 438.068 145.967C434.844 144.355 432.333 141.906 430.535 138.62C428.737 135.272 427.838 131.025 427.838 125.879V97.6066H442.346V123.74C442.346 127.894 443.214 130.963 444.95 132.947C446.748 134.869 449.259 135.83 452.483 135.83C454.715 135.83 456.699 135.365 458.435 134.435C460.171 133.443 461.535 131.955 462.527 129.971C463.519 127.925 464.015 125.383 464.015 122.345V97.6066H478.523V147.641H464.759V133.877L467.27 137.876C465.596 141.348 463.116 143.983 459.83 145.781C456.606 147.517 453.072 148.385 449.228 148.385ZM516.795 148.385C511.091 148.385 506.069 147.269 501.729 145.037C497.451 142.805 494.134 139.767 491.778 135.923C489.422 132.017 488.244 127.584 488.244 122.624C488.244 117.602 489.391 113.169 491.685 109.325C494.041 105.419 497.234 102.381 501.264 100.211C505.294 97.9786 509.851 96.8626 514.935 96.8626C519.833 96.8626 524.235 97.9166 528.141 100.025C532.109 102.071 535.24 105.047 537.534 108.953C539.828 112.797 540.975 117.416 540.975 122.81C540.975 123.368 540.944 124.019 540.882 124.763C540.82 125.445 540.758 126.096 540.696 126.716H500.055V118.253H533.07L527.49 120.764C527.49 118.16 526.963 115.897 525.909 113.975C524.855 112.053 523.398 110.565 521.538 109.511C519.678 108.395 517.508 107.837 515.028 107.837C512.548 107.837 510.347 108.395 508.425 109.511C506.565 110.565 505.108 112.084 504.054 114.068C503 115.99 502.473 118.284 502.473 120.95V123.182C502.473 125.91 503.062 128.328 504.24 130.436C505.48 132.482 507.185 134.063 509.355 135.179C511.587 136.233 514.191 136.76 517.167 136.76C519.833 136.76 522.158 136.357 524.142 135.551C526.188 134.745 528.048 133.536 529.722 131.924L537.441 140.294C535.147 142.898 532.264 144.913 528.792 146.339C525.32 147.703 521.321 148.385 516.795 148.385ZM506.193 91.1896L518.748 77.7976H534.372L517.539 91.1896H506.193Z" fill="white"/>
<path d="M145.107 191.863C149.075 191.863 152.609 192.669 155.709 194.281C158.871 195.831 161.351 198.249 163.149 201.535C164.947 204.759 165.846 208.913 165.846 213.997V242.641H151.338V216.229C151.338 212.199 150.439 209.223 148.641 207.301C146.905 205.379 144.425 204.418 141.201 204.418C138.907 204.418 136.83 204.914 134.97 205.906C133.172 206.836 131.746 208.293 130.692 210.277C129.7 212.261 129.204 214.803 129.204 217.903V242.641H114.696V192.607H128.553V206.464L125.949 202.279C127.747 198.931 130.32 196.358 133.668 194.56C137.016 192.762 140.829 191.863 145.107 191.863ZM203.168 243.385C197.836 243.385 193.093 242.269 188.939 240.037C184.847 237.805 181.592 234.767 179.174 230.923C176.818 227.017 175.64 222.584 175.64 217.624C175.64 212.602 176.818 208.169 179.174 204.325C181.592 200.419 184.847 197.381 188.939 195.211C193.093 192.979 197.836 191.863 203.168 191.863C208.438 191.863 213.15 192.979 217.304 195.211C221.458 197.381 224.713 200.388 227.069 204.232C229.425 208.076 230.603 212.54 230.603 217.624C230.603 222.584 229.425 227.017 227.069 230.923C224.713 234.767 221.458 237.805 217.304 240.037C213.15 242.269 208.438 243.385 203.168 243.385ZM203.168 231.481C205.586 231.481 207.756 230.923 209.678 229.807C211.6 228.691 213.119 227.11 214.235 225.064C215.351 222.956 215.909 220.476 215.909 217.624C215.909 214.71 215.351 212.23 214.235 210.184C213.119 208.138 211.6 206.557 209.678 205.441C207.756 204.325 205.586 203.767 203.168 203.767C200.75 203.767 198.58 204.325 196.658 205.441C194.736 206.557 193.186 208.138 192.008 210.184C190.892 212.23 190.334 214.71 190.334 217.624C190.334 220.476 190.892 222.956 192.008 225.064C193.186 227.11 194.736 228.691 196.658 229.807C198.58 230.923 200.75 231.481 203.168 231.481ZM257.133 243.385C252.855 243.385 248.732 242.889 244.764 241.897C240.858 240.843 237.758 239.541 235.464 237.991L240.3 227.575C242.594 229.001 245.291 230.179 248.391 231.109C251.553 231.977 254.653 232.411 257.691 232.411C261.039 232.411 263.395 232.008 264.759 231.202C266.185 230.396 266.898 229.28 266.898 227.854C266.898 226.676 266.34 225.808 265.224 225.25C264.17 224.63 262.744 224.165 260.946 223.855C259.148 223.545 257.164 223.235 254.994 222.925C252.886 222.615 250.747 222.212 248.577 221.716C246.407 221.158 244.423 220.352 242.625 219.298C240.827 218.244 239.37 216.818 238.254 215.02C237.2 213.222 236.673 210.897 236.673 208.045C236.673 204.883 237.572 202.093 239.37 199.675C241.23 197.257 243.896 195.366 247.368 194.002C250.84 192.576 254.994 191.863 259.83 191.863C263.24 191.863 266.712 192.235 270.246 192.979C273.78 193.723 276.725 194.808 279.081 196.234L274.245 206.557C271.827 205.131 269.378 204.17 266.898 203.674C264.48 203.116 262.124 202.837 259.83 202.837C256.606 202.837 254.25 203.271 252.762 204.139C251.274 205.007 250.53 206.123 250.53 207.487C250.53 208.727 251.057 209.657 252.111 210.277C253.227 210.897 254.684 211.393 256.482 211.765C258.28 212.137 260.233 212.478 262.341 212.788C264.511 213.036 266.681 213.439 268.851 213.997C271.021 214.555 272.974 215.361 274.71 216.415C276.508 217.407 277.965 218.802 279.081 220.6C280.197 222.336 280.755 224.63 280.755 227.482C280.755 230.582 279.825 233.341 277.965 235.759C276.105 238.115 273.408 239.975 269.874 241.339C266.402 242.703 262.155 243.385 257.133 243.385ZM313.515 243.385C308.183 243.385 303.44 242.269 299.286 240.037C295.194 237.805 291.939 234.767 289.521 230.923C287.165 227.017 285.987 222.584 285.987 217.624C285.987 212.602 287.165 208.169 289.521 204.325C291.939 200.419 295.194 197.381 299.286 195.211C303.44 192.979 308.183 191.863 313.515 191.863C318.785 191.863 323.497 192.979 327.651 195.211C331.805 197.381 335.06 200.388 337.416 204.232C339.772 208.076 340.95 212.54 340.95 217.624C340.95 222.584 339.772 227.017 337.416 230.923C335.06 234.767 331.805 237.805 327.651 240.037C323.497 242.269 318.785 243.385 313.515 243.385ZM313.515 231.481C315.933 231.481 318.103 230.923 320.025 229.807C321.947 228.691 323.466 227.11 324.582 225.064C325.698 222.956 326.256 220.476 326.256 217.624C326.256 214.71 325.698 212.23 324.582 210.184C323.466 208.138 321.947 206.557 320.025 205.441C318.103 204.325 315.933 203.767 313.515 203.767C311.097 203.767 308.927 204.325 307.005 205.441C305.083 206.557 303.533 208.138 302.355 210.184C301.239 212.23 300.681 214.71 300.681 217.624C300.681 220.476 301.239 222.956 302.355 225.064C303.533 227.11 305.083 228.691 307.005 229.807C308.927 230.923 311.097 231.481 313.515 231.481ZM371.107 243.385C365.217 243.385 360.629 241.897 357.343 238.921C354.057 235.883 352.414 231.388 352.414 225.436V181.54H366.922V225.25C366.922 227.358 367.48 229.001 368.596 230.179C369.712 231.295 371.231 231.853 373.153 231.853C375.447 231.853 377.4 231.233 379.012 229.993L382.918 240.223C381.43 241.277 379.632 242.083 377.524 242.641C375.478 243.137 373.339 243.385 371.107 243.385ZM344.695 204.883V193.723H379.384V204.883H344.695ZM391.062 242.641V192.607H404.919V206.743L402.966 202.651C404.454 199.117 406.841 196.451 410.127 194.653C413.413 192.793 417.412 191.863 422.124 191.863V205.255C421.504 205.193 420.946 205.162 420.45 205.162C419.954 205.1 419.427 205.069 418.869 205.069C414.901 205.069 411.677 206.216 409.197 208.51C406.779 210.742 405.57 214.245 405.57 219.019V242.641H391.062ZM454.195 243.385C448.863 243.385 444.12 242.269 439.966 240.037C435.874 237.805 432.619 234.767 430.201 230.923C427.845 227.017 426.667 222.584 426.667 217.624C426.667 212.602 427.845 208.169 430.201 204.325C432.619 200.419 435.874 197.381 439.966 195.211C444.12 192.979 448.863 191.863 454.195 191.863C459.465 191.863 464.177 192.979 468.331 195.211C472.485 197.381 475.74 200.388 478.096 204.232C480.452 208.076 481.63 212.54 481.63 217.624C481.63 222.584 480.452 227.017 478.096 230.923C475.74 234.767 472.485 237.805 468.331 240.037C464.177 242.269 459.465 243.385 454.195 243.385ZM454.195 231.481C456.613 231.481 458.783 230.923 460.705 229.807C462.627 228.691 464.146 227.11 465.262 225.064C466.378 222.956 466.936 220.476 466.936 217.624C466.936 214.71 466.378 212.23 465.262 210.184C464.146 208.138 462.627 206.557 460.705 205.441C458.783 204.325 456.613 203.767 454.195 203.767C451.777 203.767 449.607 204.325 447.685 205.441C445.763 206.557 444.213 208.138 443.035 210.184C441.919 212.23 441.361 214.71 441.361 217.624C441.361 220.476 441.919 222.956 443.035 225.064C444.213 227.11 445.763 228.691 447.685 229.807C449.607 230.923 451.777 231.481 454.195 231.481ZM508.161 243.385C503.883 243.385 499.76 242.889 495.792 241.897C491.886 240.843 488.786 239.541 486.492 237.991L491.328 227.575C493.622 229.001 496.319 230.179 499.419 231.109C502.581 231.977 505.681 232.411 508.719 232.411C512.067 232.411 514.423 232.008 515.787 231.202C517.213 230.396 517.926 229.28 517.926 227.854C517.926 226.676 517.368 225.808 516.252 225.25C515.198 224.63 513.772 224.165 511.974 223.855C510.176 223.545 508.192 223.235 506.022 222.925C503.914 222.615 501.775 222.212 499.605 221.716C497.435 221.158 495.451 220.352 493.653 219.298C491.855 218.244 490.398 216.818 489.282 215.02C488.228 213.222 487.701 210.897 487.701 208.045C487.701 204.883 488.6 202.093 490.398 199.675C492.258 197.257 494.924 195.366 498.396 194.002C501.868 192.576 506.022 191.863 510.858 191.863C514.268 191.863 517.74 192.235 521.274 192.979C524.808 193.723 527.753 194.808 530.109 196.234L525.273 206.557C522.855 205.131 520.406 204.17 517.926 203.674C515.508 203.116 513.152 202.837 510.858 202.837C507.634 202.837 505.278 203.271 503.79 204.139C502.302 205.007 501.558 206.123 501.558 207.487C501.558 208.727 502.085 209.657 503.139 210.277C504.255 210.897 505.712 211.393 507.51 211.765C509.308 212.137 511.261 212.478 513.369 212.788C515.539 213.036 517.709 213.439 519.879 213.997C522.049 214.555 524.002 215.361 525.738 216.415C527.536 217.407 528.993 218.802 530.109 220.6C531.225 222.336 531.783 224.63 531.783 227.482C531.783 230.582 530.853 233.341 528.993 235.759C527.133 238.115 524.436 239.975 520.902 241.339C517.43 242.703 513.183 243.385 508.161 243.385ZM553.038 220.042C553.038 217.872 553.379 215.95 554.061 214.276C554.805 212.602 555.704 211.114 556.758 209.812C557.874 208.51 559.052 207.301 560.292 206.185C561.532 205.069 562.679 204.015 563.733 203.023C564.849 201.969 565.748 200.884 566.43 199.768C567.174 198.652 567.546 197.412 567.546 196.048C567.546 193.816 566.616 192.018 564.756 190.654C562.958 189.29 560.54 188.608 557.502 188.608C554.588 188.608 551.984 189.228 549.69 190.468C547.396 191.646 545.505 193.32 544.017 195.49L532.764 188.887C535.244 185.105 538.685 182.098 543.087 179.866C547.489 177.572 552.821 176.425 559.083 176.425C563.733 176.425 567.825 177.107 571.359 178.471C574.893 179.773 577.652 181.695 579.636 184.237C581.682 186.779 582.705 189.91 582.705 193.63C582.705 196.048 582.333 198.187 581.589 200.047C580.845 201.907 579.884 203.519 578.706 204.883C577.528 206.247 576.257 207.518 574.893 208.696C573.591 209.874 572.351 211.021 571.173 212.137C569.995 213.253 569.003 214.431 568.197 215.671C567.453 216.911 567.081 218.368 567.081 220.042H553.038ZM560.106 243.385C557.502 243.385 555.363 242.548 553.689 240.874C552.015 239.2 551.178 237.216 551.178 234.922C551.178 232.566 552.015 230.613 553.689 229.063C555.363 227.451 557.502 226.645 560.106 226.645C562.772 226.645 564.911 227.451 566.523 229.063C568.197 230.613 569.034 232.566 569.034 234.922C569.034 237.216 568.197 239.2 566.523 240.874C564.911 242.548 562.772 243.385 560.106 243.385Z" fill="#FFEA00"/>
<path d="M686.147 79.9646C686.147 80.9186 685.922 81.8186 685.472 82.6646C685.022 83.5106 684.302 84.2036 683.312 84.7436C682.322 85.2656 681.053 85.5266 679.505 85.5266H676.103V93.1406H673.025V74.3756H679.505C680.945 74.3756 682.16 74.6276 683.15 75.1316C684.158 75.6176 684.905 76.2836 685.391 77.1296C685.895 77.9756 686.147 78.9206 686.147 79.9646ZM679.505 83.0156C680.675 83.0156 681.548 82.7546 682.124 82.2326C682.7 81.6926 682.988 80.9366 682.988 79.9646C682.988 77.9126 681.827 76.8866 679.505 76.8866H676.103V83.0156H679.505ZM695.536 93.3836C694.132 93.3836 692.863 93.0686 691.729 92.4386C690.595 91.7906 689.704 90.8906 689.056 89.7386C688.408 88.5686 688.084 87.2186 688.084 85.6886C688.084 84.1766 688.417 82.8356 689.083 81.6656C689.749 80.4956 690.658 79.5956 691.81 78.9656C692.962 78.3356 694.249 78.0206 695.671 78.0206C697.093 78.0206 698.38 78.3356 699.532 78.9656C700.684 79.5956 701.593 80.4956 702.259 81.6656C702.925 82.8356 703.258 84.1766 703.258 85.6886C703.258 87.2006 702.916 88.5416 702.232 89.7116C701.548 90.8816 700.612 91.7906 699.424 92.4386C698.254 93.0686 696.958 93.3836 695.536 93.3836ZM695.536 90.7106C696.328 90.7106 697.066 90.5216 697.75 90.1436C698.452 89.7656 699.019 89.1986 699.451 88.4426C699.883 87.6866 700.099 86.7686 700.099 85.6886C700.099 84.6086 699.892 83.6996 699.478 82.9616C699.064 82.2056 698.515 81.6386 697.831 81.2606C697.147 80.8826 696.409 80.6936 695.617 80.6936C694.825 80.6936 694.087 80.8826 693.403 81.2606C692.737 81.6386 692.206 82.2056 691.81 82.9616C691.414 83.6996 691.216 84.6086 691.216 85.6886C691.216 87.2906 691.621 88.5326 692.431 89.4146C693.259 90.2786 694.294 90.7106 695.536 90.7106ZM709.378 80.4236C709.828 79.6676 710.422 79.0826 711.16 78.6686C711.916 78.2366 712.807 78.0206 713.833 78.0206V81.2066H713.05C711.844 81.2066 710.926 81.5126 710.296 82.1246C709.684 82.7366 709.378 83.7986 709.378 85.3106V93.1406H706.3V78.2636H709.378V80.4236ZM715.637 85.6346C715.637 84.1406 715.943 82.8176 716.555 81.6656C717.185 80.5136 718.031 79.6226 719.093 78.9926C720.173 78.3446 721.37 78.0206 722.684 78.0206C723.836 78.0206 724.853 78.2546 725.735 78.7226C726.635 79.1906 727.328 79.7576 727.814 80.4236V78.2636H730.919V100.215H727.814V90.9806C727.328 91.6466 726.626 92.2136 725.708 92.6816C724.79 93.1496 723.746 93.3836 722.576 93.3836C721.298 93.3836 720.128 93.0596 719.066 92.4116C718.022 91.7456 717.185 90.8276 716.555 89.6576C715.943 88.4696 715.637 87.1286 715.637 85.6346ZM727.814 85.6886C727.814 84.6626 727.598 83.7716 727.166 83.0156C726.752 82.2596 726.203 81.6836 725.519 81.2876C724.835 80.8916 724.097 80.6936 723.305 80.6936C722.513 80.6936 721.775 80.8916 721.091 81.2876C720.407 81.6656 719.849 82.2326 719.417 82.9886C719.003 83.7266 718.796 84.6086 718.796 85.6346C718.796 86.6606 719.003 87.5606 719.417 88.3346C719.849 89.1086 720.407 89.7026 721.091 90.1166C721.793 90.5126 722.531 90.7106 723.305 90.7106C724.097 90.7106 724.835 90.5126 725.519 90.1166C726.203 89.7206 726.752 89.1446 727.166 88.3886C727.598 87.6146 727.814 86.7146 727.814 85.6886ZM748.435 78.2636V93.1406H745.357V91.3856C744.871 91.9976 744.232 92.4836 743.44 92.8436C742.666 93.1856 741.838 93.3566 740.956 93.3566C739.786 93.3566 738.733 93.1136 737.797 92.6276C736.879 92.1416 736.15 91.4216 735.61 90.4676C735.088 89.5136 734.827 88.3616 734.827 87.0116V78.2636H737.878V86.5526C737.878 87.8846 738.211 88.9106 738.877 89.6306C739.543 90.3326 740.452 90.6836 741.604 90.6836C742.756 90.6836 743.665 90.3326 744.331 89.6306C745.015 88.9106 745.357 87.8846 745.357 86.5526V78.2636H748.435ZM766.131 85.3376C766.131 85.8956 766.095 86.3996 766.023 86.8496H754.656C754.746 88.0376 755.187 88.9916 755.979 89.7116C756.771 90.4316 757.743 90.7916 758.895 90.7916C760.551 90.7916 761.721 90.0986 762.405 88.7126H765.726C765.276 90.0806 764.457 91.2056 763.269 92.0876C762.099 92.9516 760.641 93.3836 758.895 93.3836C757.473 93.3836 756.195 93.0686 755.061 92.4386C753.945 91.7906 753.063 90.8906 752.415 89.7386C751.785 88.5686 751.47 87.2186 751.47 85.6886C751.47 84.1586 751.776 82.8176 752.388 81.6656C753.018 80.4956 753.891 79.5956 755.007 78.9656C756.141 78.3356 757.437 78.0206 758.895 78.0206C760.299 78.0206 761.55 78.3266 762.648 78.9386C763.746 79.5506 764.601 80.4146 765.213 81.5306C765.825 82.6286 766.131 83.8976 766.131 85.3376ZM762.918 84.3656C762.9 83.2316 762.495 82.3226 761.703 81.6386C760.911 80.9546 759.93 80.6126 758.76 80.6126C757.698 80.6126 756.789 80.9546 756.033 81.6386C755.277 82.3046 754.827 83.2136 754.683 84.3656H762.918ZM783.679 78.0206C784.849 78.0206 785.893 78.2636 786.811 78.7496C787.747 79.2356 788.476 79.9556 788.998 80.9096C789.52 81.8636 789.781 83.0156 789.781 84.3656V93.1406H786.73V84.8246C786.73 83.4926 786.397 82.4756 785.731 81.7736C785.065 81.0536 784.156 80.6936 783.004 80.6936C781.852 80.6936 780.934 81.0536 780.25 81.7736C779.584 82.4756 779.251 83.4926 779.251 84.8246V93.1406H776.173V78.2636H779.251V79.9646C779.755 79.3526 780.394 78.8756 781.168 78.5336C781.96 78.1916 782.797 78.0206 783.679 78.0206ZM800.161 93.3836C798.757 93.3836 797.488 93.0686 796.354 92.4386C795.22 91.7906 794.329 90.8906 793.681 89.7386C793.033 88.5686 792.709 87.2186 792.709 85.6886C792.709 84.1766 793.042 82.8356 793.708 81.6656C794.374 80.4956 795.283 79.5956 796.435 78.9656C797.587 78.3356 798.874 78.0206 800.296 78.0206C801.718 78.0206 803.005 78.3356 804.157 78.9656C805.309 79.5956 806.218 80.4956 806.884 81.6656C807.55 82.8356 807.883 84.1766 807.883 85.6886C807.883 87.2006 807.541 88.5416 806.857 89.7116C806.173 90.8816 805.237 91.7906 804.049 92.4386C802.879 93.0686 801.583 93.3836 800.161 93.3836ZM800.161 90.7106C800.953 90.7106 801.691 90.5216 802.375 90.1436C803.077 89.7656 803.644 89.1986 804.076 88.4426C804.508 87.6866 804.724 86.7686 804.724 85.6886C804.724 84.6086 804.517 83.6996 804.103 82.9616C803.689 82.2056 803.14 81.6386 802.456 81.2606C801.772 80.8826 801.034 80.6936 800.242 80.6936C799.45 80.6936 798.712 80.8826 798.028 81.2606C797.362 81.6386 796.831 82.2056 796.435 82.9616C796.039 83.6996 795.841 84.6086 795.841 85.6886C795.841 87.2906 796.246 88.5326 797.056 89.4146C797.884 90.2786 798.919 90.7106 800.161 90.7106ZM816.325 93.3836C815.155 93.3836 814.102 93.1766 813.166 92.7626C812.248 92.3306 811.519 91.7546 810.979 91.0346C810.439 90.2966 810.151 89.4776 810.115 88.5776H813.301C813.355 89.2076 813.652 89.7386 814.192 90.1706C814.75 90.5846 815.443 90.7916 816.271 90.7916C817.135 90.7916 817.801 90.6296 818.269 90.3056C818.755 89.9636 818.998 89.5316 818.998 89.0096C818.998 88.4516 818.728 88.0376 818.188 87.7676C817.666 87.4976 816.829 87.2006 815.677 86.8766C814.561 86.5706 813.652 86.2736 812.95 85.9856C812.248 85.6976 811.636 85.2566 811.114 84.6626C810.61 84.0686 810.358 83.2856 810.358 82.3136C810.358 81.5216 810.592 80.8016 811.06 80.1536C811.528 79.4876 812.194 78.9656 813.058 78.5876C813.94 78.2096 814.948 78.0206 816.082 78.0206C817.774 78.0206 819.133 78.4526 820.159 79.3166C821.203 80.1626 821.761 81.3236 821.833 82.7996H818.755C818.701 82.1336 818.431 81.6026 817.945 81.2066C817.459 80.8106 816.802 80.6126 815.974 80.6126C815.164 80.6126 814.543 80.7656 814.111 81.0716C813.679 81.3776 813.463 81.7826 813.463 82.2866C813.463 82.6826 813.607 83.0156 813.895 83.2856C814.183 83.5556 814.534 83.7716 814.948 83.9336C815.362 84.0776 815.974 84.2666 816.784 84.5006C817.864 84.7886 818.746 85.0856 819.43 85.3916C820.132 85.6796 820.735 86.1116 821.239 86.6876C821.743 87.2636 822.004 88.0286 822.022 88.9826C822.022 89.8286 821.788 90.5846 821.32 91.2506C820.852 91.9166 820.186 92.4386 819.322 92.8166C818.476 93.1946 817.477 93.3836 816.325 93.3836ZM833.928 76.2926C833.37 76.2926 832.902 76.1036 832.524 75.7256C832.146 75.3476 831.957 74.8796 831.957 74.3216C831.957 73.7636 832.146 73.2956 832.524 72.9176C832.902 72.5396 833.37 72.3506 833.928 72.3506C834.468 72.3506 834.927 72.5396 835.305 72.9176C835.683 73.2956 835.872 73.7636 835.872 74.3216C835.872 74.8796 835.683 75.3476 835.305 75.7256C834.927 76.1036 834.468 76.2926 833.928 76.2926ZM835.44 78.2636V93.1406H832.362V78.2636H835.44ZM857.49 78.0206C858.66 78.0206 859.704 78.2636 860.622 78.7496C861.558 79.2356 862.287 79.9556 862.809 80.9096C863.349 81.8636 863.619 83.0156 863.619 84.3656V93.1406H860.568V84.8246C860.568 83.4926 860.235 82.4756 859.569 81.7736C858.903 81.0536 857.994 80.6936 856.842 80.6936C855.69 80.6936 854.772 81.0536 854.088 81.7736C853.422 82.4756 853.089 83.4926 853.089 84.8246V93.1406H850.038V84.8246C850.038 83.4926 849.705 82.4756 849.039 81.7736C848.373 81.0536 847.464 80.6936 846.312 80.6936C845.16 80.6936 844.242 81.0536 843.558 81.7736C842.892 82.4756 842.559 83.4926 842.559 84.8246V93.1406H839.481V78.2636H842.559V79.9646C843.063 79.3526 843.702 78.8756 844.476 78.5336C845.25 78.1916 846.078 78.0206 846.96 78.0206C848.148 78.0206 849.21 78.2726 850.146 78.7766C851.082 79.2806 851.802 80.0096 852.306 80.9636C852.756 80.0636 853.458 79.3526 854.412 78.8306C855.366 78.2906 856.392 78.0206 857.49 78.0206ZM870.614 80.4506C871.136 79.7666 871.847 79.1906 872.747 78.7226C873.647 78.2546 874.664 78.0206 875.798 78.0206C877.094 78.0206 878.273 78.3446 879.335 78.9926C880.415 79.6226 881.261 80.5136 881.873 81.6656C882.485 82.8176 882.791 84.1406 882.791 85.6346C882.791 87.1286 882.485 88.4696 881.873 89.6576C881.261 90.8276 880.415 91.7456 879.335 92.4116C878.273 93.0596 877.094 93.3836 875.798 93.3836C874.664 93.3836 873.656 93.1586 872.774 92.7086C871.892 92.2406 871.172 91.6646 870.614 90.9806V100.215H867.536V78.2636H870.614V80.4506ZM879.659 85.6346C879.659 84.6086 879.443 83.7266 879.011 82.9886C878.597 82.2326 878.039 81.6656 877.337 81.2876C876.653 80.8916 875.915 80.6936 875.123 80.6936C874.349 80.6936 873.611 80.8916 872.909 81.2876C872.225 81.6836 871.667 82.2596 871.235 83.0156C870.821 83.7716 870.614 84.6626 870.614 85.6886C870.614 86.7146 870.821 87.6146 871.235 88.3886C871.667 89.1446 872.225 89.7206 872.909 90.1166C873.611 90.5126 874.349 90.7106 875.123 90.7106C875.915 90.7106 876.653 90.5126 877.337 90.1166C878.039 89.7026 878.597 89.1086 879.011 88.3346C879.443 87.5606 879.659 86.6606 879.659 85.6346ZM892.288 93.3836C890.884 93.3836 889.615 93.0686 888.481 92.4386C887.347 91.7906 886.456 90.8906 885.808 89.7386C885.16 88.5686 884.836 87.2186 884.836 85.6886C884.836 84.1766 885.169 82.8356 885.835 81.6656C886.501 80.4956 887.41 79.5956 888.562 78.9656C889.714 78.3356 891.001 78.0206 892.423 78.0206C893.845 78.0206 895.132 78.3356 896.284 78.9656C897.436 79.5956 898.345 80.4956 899.011 81.6656C899.677 82.8356 900.01 84.1766 900.01 85.6886C900.01 87.2006 899.668 88.5416 898.984 89.7116C898.3 90.8816 897.364 91.7906 896.176 92.4386C895.006 93.0686 893.71 93.3836 892.288 93.3836ZM892.288 90.7106C893.08 90.7106 893.818 90.5216 894.502 90.1436C895.204 89.7656 895.771 89.1986 896.203 88.4426C896.635 87.6866 896.851 86.7686 896.851 85.6886C896.851 84.6086 896.644 83.6996 896.23 82.9616C895.816 82.2056 895.267 81.6386 894.583 81.2606C893.899 80.8826 893.161 80.6936 892.369 80.6936C891.577 80.6936 890.839 80.8826 890.155 81.2606C889.489 81.6386 888.958 82.2056 888.562 82.9616C888.166 83.6996 887.968 84.6086 887.968 85.6886C887.968 87.2906 888.373 88.5326 889.183 89.4146C890.011 90.2786 891.046 90.7106 892.288 90.7106ZM906.13 80.4236C906.58 79.6676 907.174 79.0826 907.912 78.6686C908.668 78.2366 909.559 78.0206 910.585 78.0206V81.2066H909.802C908.596 81.2066 907.678 81.5126 907.048 82.1246C906.436 82.7366 906.13 83.7986 906.13 85.3106V93.1406H903.052V78.2636H906.13V80.4236ZM917.006 80.7746V89.0096C917.006 89.5676 917.132 89.9726 917.384 90.2246C917.654 90.4586 918.104 90.5756 918.734 90.5756H920.624V93.1406H918.194C916.808 93.1406 915.746 92.8166 915.008 92.1686C914.27 91.5206 913.901 90.4676 913.901 89.0096V80.7746H912.146V78.2636H913.901V74.5646H917.006V78.2636H920.624V80.7746H917.006ZM922.435 85.6346C922.435 84.1406 922.741 82.8176 923.353 81.6656C923.983 80.5136 924.829 79.6226 925.891 78.9926C926.971 78.3446 928.159 78.0206 929.455 78.0206C930.625 78.0206 931.642 78.2546 932.506 78.7226C933.388 79.1726 934.09 79.7396 934.612 80.4236V78.2636H937.717V93.1406H934.612V90.9266C934.09 91.6286 933.379 92.2136 932.479 92.6816C931.579 93.1496 930.553 93.3836 929.401 93.3836C928.123 93.3836 926.953 93.0596 925.891 92.4116C924.829 91.7456 923.983 90.8276 923.353 89.6576C922.741 88.4696 922.435 87.1286 922.435 85.6346ZM934.612 85.6886C934.612 84.6626 934.396 83.7716 933.964 83.0156C933.55 82.2596 933.001 81.6836 932.317 81.2876C931.633 80.8916 930.895 80.6936 930.103 80.6936C929.311 80.6936 928.573 80.8916 927.889 81.2876C927.205 81.6656 926.647 82.2326 926.215 82.9886C925.801 83.7266 925.594 84.6086 925.594 85.6346C925.594 86.6606 925.801 87.5606 926.215 88.3346C926.647 89.1086 927.205 89.7026 927.889 90.1166C928.591 90.5126 929.329 90.7106 930.103 90.7106C930.895 90.7106 931.633 90.5126 932.317 90.1166C933.001 89.7206 933.55 89.1446 933.964 88.3886C934.396 87.6146 934.612 86.7146 934.612 85.6886ZM952.364 80.7746V89.0096C952.364 89.5676 952.49 89.9726 952.742 90.2246C953.012 90.4586 953.462 90.5756 954.092 90.5756H955.982V93.1406H953.552C952.166 93.1406 951.104 92.8166 950.366 92.1686C949.628 91.5206 949.259 90.4676 949.259 89.0096V80.7746H947.504V78.2636H949.259V74.5646H952.364V78.2636H955.982V80.7746H952.364ZM972.292 78.2636V93.1406H969.214V91.3856C968.728 91.9976 968.089 92.4836 967.297 92.8436C966.523 93.1856 965.695 93.3566 964.813 93.3566C963.643 93.3566 962.59 93.1136 961.654 92.6276C960.736 92.1416 960.007 91.4216 959.467 90.4676C958.945 89.5136 958.684 88.3616 958.684 87.0116V78.2636H961.735V86.5526C961.735 87.8846 962.068 88.9106 962.734 89.6306C963.4 90.3326 964.309 90.6836 965.461 90.6836C966.613 90.6836 967.522 90.3326 968.188 89.6306C968.872 88.9106 969.214 87.8846 969.214 86.5526V78.2636H972.292ZM680.531 114.021C681.701 114.021 682.745 114.264 683.663 114.75C684.599 115.236 685.328 115.956 685.85 116.91C686.372 117.864 686.633 119.016 686.633 120.366V129.141H683.582V120.825C683.582 119.493 683.249 118.476 682.583 117.774C681.917 117.054 681.008 116.694 679.856 116.694C678.704 116.694 677.786 117.054 677.102 117.774C676.436 118.476 676.103 119.493 676.103 120.825V129.141H673.025V114.264H676.103V115.965C676.607 115.353 677.246 114.876 678.02 114.534C678.812 114.192 679.649 114.021 680.531 114.021ZM704.194 121.338C704.194 121.896 704.158 122.4 704.086 122.85H692.719C692.809 124.038 693.25 124.992 694.042 125.712C694.834 126.432 695.806 126.792 696.958 126.792C698.614 126.792 699.784 126.099 700.468 124.713H703.789C703.339 126.081 702.52 127.206 701.332 128.088C700.162 128.952 698.704 129.384 696.958 129.384C695.536 129.384 694.258 129.069 693.124 128.439C692.008 127.791 691.126 126.891 690.478 125.739C689.848 124.569 689.533 123.219 689.533 121.689C689.533 120.159 689.839 118.818 690.451 117.666C691.081 116.496 691.954 115.596 693.07 114.966C694.204 114.336 695.5 114.021 696.958 114.021C698.362 114.021 699.613 114.327 700.711 114.939C701.809 115.551 702.664 116.415 703.276 117.531C703.888 118.629 704.194 119.898 704.194 121.338ZM700.981 120.366C700.963 119.232 700.558 118.323 699.766 117.639C698.974 116.955 697.993 116.613 696.823 116.613C695.761 116.613 694.852 116.955 694.096 117.639C693.34 118.305 692.89 119.214 692.746 120.366H700.981ZM713.217 114.021C714.369 114.021 715.386 114.255 716.268 114.723C717.168 115.173 717.87 115.74 718.374 116.424V114.264H721.479V129.384C721.479 130.752 721.191 131.967 720.615 133.029C720.039 134.109 719.202 134.955 718.104 135.567C717.024 136.179 715.728 136.485 714.216 136.485C712.2 136.485 710.526 136.008 709.194 135.054C707.862 134.118 707.106 132.84 706.926 131.22H709.977C710.211 131.994 710.706 132.615 711.462 133.083C712.236 133.569 713.154 133.812 714.216 133.812C715.458 133.812 716.457 133.434 717.213 132.678C717.987 131.922 718.374 130.824 718.374 129.384V126.9C717.852 127.602 717.141 128.196 716.241 128.682C715.359 129.15 714.351 129.384 713.217 129.384C711.921 129.384 710.733 129.06 709.653 128.412C708.591 127.746 707.745 126.828 707.115 125.658C706.503 124.47 706.197 123.129 706.197 121.635C706.197 120.141 706.503 118.818 707.115 117.666C707.745 116.514 708.591 115.623 709.653 114.993C710.733 114.345 711.921 114.021 713.217 114.021ZM718.374 121.689C718.374 120.663 718.158 119.772 717.726 119.016C717.312 118.26 716.763 117.684 716.079 117.288C715.395 116.892 714.657 116.694 713.865 116.694C713.073 116.694 712.335 116.892 711.651 117.288C710.967 117.666 710.409 118.233 709.977 118.989C709.563 119.727 709.356 120.609 709.356 121.635C709.356 122.661 709.563 123.561 709.977 124.335C710.409 125.109 710.967 125.703 711.651 126.117C712.353 126.513 713.091 126.711 713.865 126.711C714.657 126.711 715.395 126.513 716.079 126.117C716.763 125.721 717.312 125.145 717.726 124.389C718.158 123.615 718.374 122.715 718.374 121.689ZM731.975 129.384C730.571 129.384 729.302 129.069 728.168 128.439C727.034 127.791 726.143 126.891 725.495 125.739C724.847 124.569 724.523 123.219 724.523 121.689C724.523 120.177 724.856 118.836 725.522 117.666C726.188 116.496 727.097 115.596 728.249 114.966C729.401 114.336 730.688 114.021 732.11 114.021C733.532 114.021 734.819 114.336 735.971 114.966C737.123 115.596 738.032 116.496 738.698 117.666C739.364 118.836 739.697 120.177 739.697 121.689C739.697 123.201 739.355 124.542 738.671 125.712C737.987 126.882 737.051 127.791 735.863 128.439C734.693 129.069 733.397 129.384 731.975 129.384ZM731.975 126.711C732.767 126.711 733.505 126.522 734.189 126.144C734.891 125.766 735.458 125.199 735.89 124.443C736.322 123.687 736.538 122.769 736.538 121.689C736.538 120.609 736.331 119.7 735.917 118.962C735.503 118.206 734.954 117.639 734.27 117.261C733.586 116.883 732.848 116.694 732.056 116.694C731.264 116.694 730.526 116.883 729.842 117.261C729.176 117.639 728.645 118.206 728.249 118.962C727.853 119.7 727.655 120.609 727.655 121.689C727.655 123.291 728.06 124.533 728.87 125.415C729.698 126.279 730.733 126.711 731.975 126.711ZM741.714 121.689C741.714 120.159 742.02 118.818 742.632 117.666C743.262 116.496 744.126 115.596 745.224 114.966C746.322 114.336 747.582 114.021 749.004 114.021C750.804 114.021 752.289 114.453 753.459 115.317C754.647 116.163 755.448 117.378 755.862 118.962H752.541C752.271 118.224 751.839 117.648 751.245 117.234C750.651 116.82 749.904 116.613 749.004 116.613C747.744 116.613 746.736 117.063 745.98 117.963C745.242 118.845 744.873 120.087 744.873 121.689C744.873 123.291 745.242 124.542 745.98 125.442C746.736 126.342 747.744 126.792 749.004 126.792C750.786 126.792 751.965 126.009 752.541 124.443H755.862C755.43 125.955 754.62 127.161 753.432 128.061C752.244 128.943 750.768 129.384 749.004 129.384C747.582 129.384 746.322 129.069 745.224 128.439C744.126 127.791 743.262 126.891 742.632 125.739C742.02 124.569 741.714 123.219 741.714 121.689ZM760.495 112.293C759.937 112.293 759.469 112.104 759.091 111.726C758.713 111.348 758.524 110.88 758.524 110.322C758.524 109.764 758.713 109.296 759.091 108.918C759.469 108.54 759.937 108.351 760.495 108.351C761.035 108.351 761.494 108.54 761.872 108.918C762.25 109.296 762.439 109.764 762.439 110.322C762.439 110.88 762.25 111.348 761.872 111.726C761.494 112.104 761.035 112.293 760.495 112.293ZM762.007 114.264V129.141H758.929V114.264H762.007ZM772.501 129.384C771.097 129.384 769.828 129.069 768.694 128.439C767.56 127.791 766.669 126.891 766.021 125.739C765.373 124.569 765.049 123.219 765.049 121.689C765.049 120.177 765.382 118.836 766.048 117.666C766.714 116.496 767.623 115.596 768.775 114.966C769.927 114.336 771.214 114.021 772.636 114.021C774.058 114.021 775.345 114.336 776.497 114.966C777.649 115.596 778.558 116.496 779.224 117.666C779.89 118.836 780.223 120.177 780.223 121.689C780.223 123.201 779.881 124.542 779.197 125.712C778.513 126.882 777.577 127.791 776.389 128.439C775.219 129.069 773.923 129.384 772.501 129.384ZM772.501 126.711C773.293 126.711 774.031 126.522 774.715 126.144C775.417 125.766 775.984 125.199 776.416 124.443C776.848 123.687 777.064 122.769 777.064 121.689C777.064 120.609 776.857 119.7 776.443 118.962C776.029 118.206 775.48 117.639 774.796 117.261C774.112 116.883 773.374 116.694 772.582 116.694C771.79 116.694 771.052 116.883 770.368 117.261C769.702 117.639 769.171 118.206 768.775 118.962C768.379 119.7 768.181 120.609 768.181 121.689C768.181 123.291 768.586 124.533 769.396 125.415C770.224 126.279 771.259 126.711 772.501 126.711ZM793.871 116.775V125.01C793.871 125.568 793.997 125.973 794.249 126.225C794.519 126.459 794.969 126.576 795.599 126.576H797.489V129.141H795.059C793.673 129.141 792.611 128.817 791.873 128.169C791.135 127.521 790.766 126.468 790.766 125.01V116.775H789.011V114.264H790.766V110.565H793.871V114.264H797.489V116.775H793.871ZM799.3 121.635C799.3 120.141 799.606 118.818 800.218 117.666C800.848 116.514 801.694 115.623 802.756 114.993C803.836 114.345 805.024 114.021 806.32 114.021C807.49 114.021 808.507 114.255 809.371 114.723C810.253 115.173 810.955 115.74 811.477 116.424V114.264H814.582V129.141H811.477V126.927C810.955 127.629 810.244 128.214 809.344 128.682C808.444 129.15 807.418 129.384 806.266 129.384C804.988 129.384 803.818 129.06 802.756 128.412C801.694 127.746 800.848 126.828 800.218 125.658C799.606 124.47 799.3 123.129 799.3 121.635ZM811.477 121.689C811.477 120.663 811.261 119.772 810.829 119.016C810.415 118.26 809.866 117.684 809.182 117.288C808.498 116.892 807.76 116.694 806.968 116.694C806.176 116.694 805.438 116.892 804.754 117.288C804.07 117.666 803.512 118.233 803.08 118.989C802.666 119.727 802.459 120.609 802.459 121.635C802.459 122.661 802.666 123.561 803.08 124.335C803.512 125.109 804.07 125.703 804.754 126.117C805.456 126.513 806.194 126.711 806.968 126.711C807.76 126.711 808.498 126.513 809.182 126.117C809.866 125.721 810.415 125.145 810.829 124.389C811.261 123.615 811.477 122.715 811.477 121.689ZM826.131 114.021C827.301 114.021 828.345 114.264 829.263 114.75C830.199 115.236 830.928 115.956 831.45 116.91C831.972 117.864 832.233 119.016 832.233 120.366V129.141H829.182V120.825C829.182 119.493 828.849 118.476 828.183 117.774C827.517 117.054 826.608 116.694 825.456 116.694C824.304 116.694 823.386 117.054 822.702 117.774C822.036 118.476 821.703 119.493 821.703 120.825V129.141H818.625V114.264H821.703V115.965C822.207 115.353 822.846 114.876 823.62 114.534C824.412 114.192 825.249 114.021 826.131 114.021ZM839.75 116.775V125.01C839.75 125.568 839.876 125.973 840.128 126.225C840.398 126.459 840.848 126.576 841.478 126.576H843.368V129.141H840.938C839.552 129.141 838.49 128.817 837.752 128.169C837.014 127.521 836.645 126.468 836.645 125.01V116.775H834.89V114.264H836.645V110.565H839.75V114.264H843.368V116.775H839.75ZM852.658 129.384C851.254 129.384 849.985 129.069 848.851 128.439C847.717 127.791 846.826 126.891 846.178 125.739C845.53 124.569 845.206 123.219 845.206 121.689C845.206 120.177 845.539 118.836 846.205 117.666C846.871 116.496 847.78 115.596 848.932 114.966C850.084 114.336 851.371 114.021 852.793 114.021C854.215 114.021 855.502 114.336 856.654 114.966C857.806 115.596 858.715 116.496 859.381 117.666C860.047 118.836 860.38 120.177 860.38 121.689C860.38 123.201 860.038 124.542 859.354 125.712C858.67 126.882 857.734 127.791 856.546 128.439C855.376 129.069 854.08 129.384 852.658 129.384ZM852.658 126.711C853.45 126.711 854.188 126.522 854.872 126.144C855.574 125.766 856.141 125.199 856.573 124.443C857.005 123.687 857.221 122.769 857.221 121.689C857.221 120.609 857.014 119.7 856.6 118.962C856.186 118.206 855.637 117.639 854.953 117.261C854.269 116.883 853.531 116.694 852.739 116.694C851.947 116.694 851.209 116.883 850.525 117.261C849.859 117.639 849.328 118.206 848.932 118.962C848.536 119.7 848.338 120.609 848.338 121.689C848.338 123.291 848.743 124.533 849.553 125.415C850.381 126.279 851.416 126.711 852.658 126.711ZM869.41 121.689C869.41 120.159 869.716 118.818 870.328 117.666C870.958 116.496 871.822 115.596 872.92 114.966C874.018 114.336 875.278 114.021 876.7 114.021C878.5 114.021 879.985 114.453 881.155 115.317C882.343 116.163 883.144 117.378 883.558 118.962H880.237C879.967 118.224 879.535 117.648 878.941 117.234C878.347 116.82 877.6 116.613 876.7 116.613C875.44 116.613 874.432 117.063 873.676 117.963C872.938 118.845 872.569 120.087 872.569 121.689C872.569 123.291 872.938 124.542 873.676 125.442C874.432 126.342 875.44 126.792 876.7 126.792C878.482 126.792 879.661 126.009 880.237 124.443H883.558C883.126 125.955 882.316 127.161 881.128 128.061C879.94 128.943 878.464 129.384 876.7 129.384C875.278 129.384 874.018 129.069 872.92 128.439C871.822 127.791 870.958 126.891 870.328 125.739C869.716 124.569 869.41 123.219 869.41 121.689ZM893.079 129.384C891.675 129.384 890.406 129.069 889.272 128.439C888.138 127.791 887.247 126.891 886.599 125.739C885.951 124.569 885.627 123.219 885.627 121.689C885.627 120.177 885.96 118.836 886.626 117.666C887.292 116.496 888.201 115.596 889.353 114.966C890.505 114.336 891.792 114.021 893.214 114.021C894.636 114.021 895.923 114.336 897.075 114.966C898.227 115.596 899.136 116.496 899.802 117.666C900.468 118.836 900.801 120.177 900.801 121.689C900.801 123.201 900.459 124.542 899.775 125.712C899.091 126.882 898.155 127.791 896.967 128.439C895.797 129.069 894.501 129.384 893.079 129.384ZM893.079 126.711C893.871 126.711 894.609 126.522 895.293 126.144C895.995 125.766 896.562 125.199 896.994 124.443C897.426 123.687 897.642 122.769 897.642 121.689C897.642 120.609 897.435 119.7 897.021 118.962C896.607 118.206 896.058 117.639 895.374 117.261C894.69 116.883 893.952 116.694 893.16 116.694C892.368 116.694 891.63 116.883 890.946 117.261C890.28 117.639 889.749 118.206 889.353 118.962C888.957 119.7 888.759 120.609 888.759 121.689C888.759 123.291 889.164 124.533 889.974 125.415C890.802 126.279 891.837 126.711 893.079 126.711ZM921.852 114.021C923.022 114.021 924.066 114.264 924.984 114.75C925.92 115.236 926.649 115.956 927.171 116.91C927.711 117.864 927.981 119.016 927.981 120.366V129.141H924.93V120.825C924.93 119.493 924.597 118.476 923.931 117.774C923.265 117.054 922.356 116.694 921.204 116.694C920.052 116.694 919.134 117.054 918.45 117.774C917.784 118.476 917.451 119.493 917.451 120.825V129.141H914.4V120.825C914.4 119.493 914.067 118.476 913.401 117.774C912.735 117.054 911.826 116.694 910.674 116.694C909.522 116.694 908.604 117.054 907.92 117.774C907.254 118.476 906.921 119.493 906.921 120.825V129.141H903.843V114.264H906.921V115.965C907.425 115.353 908.064 114.876 908.838 114.534C909.612 114.192 910.44 114.021 911.322 114.021C912.51 114.021 913.572 114.273 914.508 114.777C915.444 115.281 916.164 116.01 916.668 116.964C917.118 116.064 917.82 115.353 918.774 114.831C919.728 114.291 920.754 114.021 921.852 114.021ZM938.351 129.384C936.947 129.384 935.678 129.069 934.544 128.439C933.41 127.791 932.519 126.891 931.871 125.739C931.223 124.569 930.899 123.219 930.899 121.689C930.899 120.177 931.232 118.836 931.898 117.666C932.564 116.496 933.473 115.596 934.625 114.966C935.777 114.336 937.064 114.021 938.486 114.021C939.908 114.021 941.195 114.336 942.347 114.966C943.499 115.596 944.408 116.496 945.074 117.666C945.74 118.836 946.073 120.177 946.073 121.689C946.073 123.201 945.731 124.542 945.047 125.712C944.363 126.882 943.427 127.791 942.239 128.439C941.069 129.069 939.773 129.384 938.351 129.384ZM938.351 126.711C939.143 126.711 939.881 126.522 940.565 126.144C941.267 125.766 941.834 125.199 942.266 124.443C942.698 123.687 942.914 122.769 942.914 121.689C942.914 120.609 942.707 119.7 942.293 118.962C941.879 118.206 941.33 117.639 940.646 117.261C939.962 116.883 939.224 116.694 938.432 116.694C937.64 116.694 936.902 116.883 936.218 117.261C935.552 117.639 935.021 118.206 934.625 118.962C934.229 119.7 934.031 120.609 934.031 121.689C934.031 123.291 934.436 124.533 935.246 125.415C936.074 126.279 937.109 126.711 938.351 126.711ZM955.103 121.635C955.103 120.141 955.409 118.818 956.021 117.666C956.651 116.514 957.497 115.623 958.559 114.993C959.639 114.345 960.827 114.021 962.123 114.021C963.293 114.021 964.31 114.255 965.174 114.723C966.056 115.173 966.758 115.74 967.28 116.424V114.264H970.385V129.141H967.28V126.927C966.758 127.629 966.047 128.214 965.147 128.682C964.247 129.15 963.221 129.384 962.069 129.384C960.791 129.384 959.621 129.06 958.559 128.412C957.497 127.746 956.651 126.828 956.021 125.658C955.409 124.47 955.103 123.129 955.103 121.635ZM967.28 121.689C967.28 120.663 967.064 119.772 966.632 119.016C966.218 118.26 965.669 117.684 964.985 117.288C964.301 116.892 963.563 116.694 962.771 116.694C961.979 116.694 961.241 116.892 960.557 117.288C959.873 117.666 959.315 118.233 958.883 118.989C958.469 119.727 958.262 120.609 958.262 121.635C958.262 122.661 958.469 123.561 958.883 124.335C959.315 125.109 959.873 125.703 960.557 126.117C961.259 126.513 961.997 126.711 962.771 126.711C963.563 126.711 964.301 126.513 964.985 126.117C965.669 125.721 966.218 125.145 966.632 124.389C967.064 123.615 967.28 122.715 967.28 121.689ZM985.033 116.775V125.01C985.033 125.568 985.159 125.973 985.411 126.225C985.681 126.459 986.131 126.576 986.761 126.576H988.651V129.141H986.221C984.835 129.141 983.773 128.817 983.035 128.169C982.297 127.521 981.928 126.468 981.928 125.01V116.775H980.173V114.264H981.928V110.565H985.033V114.264H988.651V116.775H985.033ZM993.054 112.293C992.496 112.293 992.028 112.104 991.65 111.726C991.272 111.348 991.083 110.88 991.083 110.322C991.083 109.764 991.272 109.296 991.65 108.918C992.028 108.54 992.496 108.351 993.054 108.351C993.594 108.351 994.053 108.54 994.431 108.918C994.809 109.296 994.998 109.764 994.998 110.322C994.998 110.88 994.809 111.348 994.431 111.726C994.053 112.104 993.594 112.293 993.054 112.293ZM994.566 114.264V129.141H991.488V114.264H994.566Z" fill="white"/>
<rect x="671" y="177.141" width="279" height="80" rx="40" fill="#FFEA00"/>
<path d="M727.237 209.242V215.974H735.157V219.043H727.237V226.072H736.147V229.141H723.475V206.173H736.147V209.242H727.237ZM747.381 229.438C745.951 229.438 744.664 229.185 743.52 228.679C742.398 228.151 741.507 227.447 740.847 226.567C740.187 225.665 739.835 224.664 739.791 223.564H743.685C743.751 224.334 744.114 224.983 744.774 225.511C745.456 226.017 746.303 226.27 747.315 226.27C748.371 226.27 749.185 226.072 749.757 225.676C750.351 225.258 750.648 224.73 750.648 224.092C750.648 223.41 750.318 222.904 749.658 222.574C749.02 222.244 747.997 221.881 746.589 221.485C745.225 221.111 744.114 220.748 743.256 220.396C742.398 220.044 741.65 219.505 741.012 218.779C740.396 218.053 740.088 217.096 740.088 215.908C740.088 214.94 740.374 214.06 740.946 213.268C741.518 212.454 742.332 211.816 743.388 211.354C744.466 210.892 745.698 210.661 747.084 210.661C749.152 210.661 750.813 211.189 752.067 212.245C753.343 213.279 754.025 214.698 754.113 216.502H750.351C750.285 215.688 749.955 215.039 749.361 214.555C748.767 214.071 747.964 213.829 746.952 213.829C745.962 213.829 745.203 214.016 744.675 214.39C744.147 214.764 743.883 215.259 743.883 215.875C743.883 216.359 744.059 216.766 744.411 217.096C744.763 217.426 745.192 217.69 745.698 217.888C746.204 218.064 746.952 218.295 747.942 218.581C749.262 218.933 750.34 219.296 751.176 219.67C752.034 220.022 752.771 220.55 753.387 221.254C754.003 221.958 754.322 222.893 754.344 224.059C754.344 225.093 754.058 226.017 753.486 226.831C752.914 227.645 752.1 228.283 751.044 228.745C750.01 229.207 748.789 229.438 747.381 229.438ZM757.155 220.033C757.155 218.163 757.529 216.524 758.277 215.116C759.047 213.686 760.103 212.586 761.445 211.816C762.787 211.046 764.327 210.661 766.065 210.661C768.265 210.661 770.08 211.189 771.51 212.245C772.962 213.279 773.941 214.764 774.447 216.7H770.388C770.058 215.798 769.53 215.094 768.804 214.588C768.078 214.082 767.165 213.829 766.065 213.829C764.525 213.829 763.293 214.379 762.369 215.479C761.467 216.557 761.016 218.075 761.016 220.033C761.016 221.991 761.467 223.52 762.369 224.62C763.293 225.72 764.525 226.27 766.065 226.27C768.243 226.27 769.684 225.313 770.388 223.399H774.447C773.919 225.247 772.929 226.721 771.477 227.821C770.025 228.899 768.221 229.438 766.065 229.438C764.327 229.438 762.787 229.053 761.445 228.283C760.103 227.491 759.047 226.391 758.277 224.983C757.529 223.553 757.155 221.903 757.155 220.033ZM781.958 213.598C782.508 212.674 783.234 211.959 784.136 211.453C785.06 210.925 786.149 210.661 787.403 210.661V214.555H786.446C784.972 214.555 783.85 214.929 783.08 215.677C782.332 216.425 781.958 217.723 781.958 219.571V229.141H778.196V210.958H781.958V213.598ZM794.623 210.958V229.141H790.861V210.958H794.623ZM796.141 206.074L788.848 209.671V206.899L796.141 202.873V206.074ZM803.324 213.664C803.962 212.784 804.831 212.069 805.931 211.519C807.053 210.947 808.296 210.661 809.66 210.661C811.266 210.661 812.718 211.046 814.016 211.816C815.314 212.586 816.337 213.686 817.085 215.116C817.833 216.524 818.207 218.141 818.207 219.967C818.207 221.793 817.833 223.432 817.085 224.884C816.337 226.314 815.303 227.436 813.983 228.25C812.685 229.042 811.244 229.438 809.66 229.438C808.252 229.438 806.998 229.163 805.898 228.613C804.82 228.063 803.962 227.359 803.324 226.501V229.141H799.562V204.721H803.324V213.664ZM814.379 219.967C814.379 218.713 814.115 217.635 813.587 216.733C813.081 215.809 812.399 215.116 811.541 214.654C810.705 214.17 809.803 213.928 808.835 213.928C807.889 213.928 806.987 214.17 806.129 214.654C805.293 215.138 804.611 215.842 804.083 216.766C803.577 217.69 803.324 218.779 803.324 220.033C803.324 221.287 803.577 222.387 804.083 223.333C804.611 224.257 805.293 224.961 806.129 225.445C806.987 225.929 807.889 226.171 808.835 226.171C809.803 226.171 810.705 225.929 811.541 225.445C812.399 224.939 813.081 224.213 813.587 223.267C814.115 222.321 814.379 221.221 814.379 219.967ZM838.592 219.604C838.592 220.286 838.548 220.902 838.46 221.452H824.567C824.677 222.904 825.216 224.07 826.184 224.95C827.152 225.83 828.34 226.27 829.748 226.27C831.772 226.27 833.202 225.423 834.038 223.729H838.097C837.547 225.401 836.546 226.776 835.094 227.854C833.664 228.91 831.882 229.438 829.748 229.438C828.01 229.438 826.448 229.053 825.062 228.283C823.698 227.491 822.62 226.391 821.828 224.983C821.058 223.553 820.673 221.903 820.673 220.033C820.673 218.163 821.047 216.524 821.795 215.116C822.565 213.686 823.632 212.586 824.996 211.816C826.382 211.046 827.966 210.661 829.748 210.661C831.464 210.661 832.993 211.035 834.335 211.783C835.677 212.531 836.722 213.587 837.47 214.951C838.218 216.293 838.592 217.844 838.592 219.604ZM834.665 218.416C834.643 217.03 834.148 215.919 833.18 215.083C832.212 214.247 831.013 213.829 829.583 213.829C828.285 213.829 827.174 214.247 826.25 215.083C825.326 215.897 824.776 217.008 824.6 218.416H834.665ZM851.468 210.661C852.898 210.661 854.174 210.958 855.296 211.552C856.44 212.146 857.331 213.026 857.969 214.192C858.607 215.358 858.926 216.766 858.926 218.416V229.141H855.197V218.977C855.197 217.349 854.79 216.106 853.976 215.248C853.162 214.368 852.051 213.928 850.643 213.928C849.235 213.928 848.113 214.368 847.277 215.248C846.463 216.106 846.056 217.349 846.056 218.977V229.141H842.294V210.958H846.056V213.037C846.672 212.289 847.453 211.706 848.399 211.288C849.367 210.87 850.39 210.661 851.468 210.661ZM871.612 229.438C869.896 229.438 868.345 229.053 866.959 228.283C865.573 227.491 864.484 226.391 863.692 224.983C862.9 223.553 862.504 221.903 862.504 220.033C862.504 218.185 862.911 216.546 863.725 215.116C864.539 213.686 865.65 212.586 867.058 211.816C868.466 211.046 870.039 210.661 871.777 210.661C873.515 210.661 875.088 211.046 876.496 211.816C877.904 212.586 879.015 213.686 879.829 215.116C880.643 216.546 881.05 218.185 881.05 220.033C881.05 221.881 880.632 223.52 879.796 224.95C878.96 226.38 877.816 227.491 876.364 228.283C874.934 229.053 873.35 229.438 871.612 229.438ZM871.612 226.171C872.58 226.171 873.482 225.94 874.318 225.478C875.176 225.016 875.869 224.323 876.397 223.399C876.925 222.475 877.189 221.353 877.189 220.033C877.189 218.713 876.936 217.602 876.43 216.7C875.924 215.776 875.253 215.083 874.417 214.621C873.581 214.159 872.679 213.928 871.711 213.928C870.743 213.928 869.841 214.159 869.005 214.621C868.191 215.083 867.542 215.776 867.058 216.7C866.574 217.602 866.332 218.713 866.332 220.033C866.332 221.991 866.827 223.509 867.817 224.587C868.829 225.643 870.094 226.171 871.612 226.171ZM891.369 229.438C889.939 229.438 888.652 229.185 887.508 228.679C886.386 228.151 885.495 227.447 884.835 226.567C884.175 225.665 883.823 224.664 883.779 223.564H887.673C887.739 224.334 888.102 224.983 888.762 225.511C889.444 226.017 890.291 226.27 891.303 226.27C892.359 226.27 893.173 226.072 893.745 225.676C894.339 225.258 894.636 224.73 894.636 224.092C894.636 223.41 894.306 222.904 893.646 222.574C893.008 222.244 891.985 221.881 890.577 221.485C889.213 221.111 888.102 220.748 887.244 220.396C886.386 220.044 885.638 219.505 885 218.779C884.384 218.053 884.076 217.096 884.076 215.908C884.076 214.94 884.362 214.06 884.934 213.268C885.506 212.454 886.32 211.816 887.376 211.354C888.454 210.892 889.686 210.661 891.072 210.661C893.14 210.661 894.801 211.189 896.055 212.245C897.331 213.279 898.013 214.698 898.101 216.502H894.339C894.273 215.688 893.943 215.039 893.349 214.555C892.755 214.071 891.952 213.829 890.94 213.829C889.95 213.829 889.191 214.016 888.663 214.39C888.135 214.764 887.871 215.259 887.871 215.875C887.871 216.359 888.047 216.766 888.399 217.096C888.751 217.426 889.18 217.69 889.686 217.888C890.192 218.064 890.94 218.295 891.93 218.581C893.25 218.933 894.328 219.296 895.164 219.67C896.022 220.022 896.759 220.55 897.375 221.254C897.991 221.958 898.31 222.893 898.332 224.059C898.332 225.093 898.046 226.017 897.474 226.831C896.902 227.645 896.088 228.283 895.032 228.745C893.998 229.207 892.777 229.438 891.369 229.438Z" fill="#FE328C"/>
</svg>
