<svg width="151" height="53" viewBox="0 0 151 53" fill="none" xmlns="http://www.w3.org/2000/svg">
    <g clip-path="url(#clip0_3_15)">
        <path
            d="M66.01 19.42C63.72 18.29 61.18 17.73 58.4 17.73C55.45 17.73 52.79 18.35 50.43 19.58C48.07 20.81 46.22 22.53 44.88 24.74C43.54 26.95 42.87 29.46 42.87 32.27C42.87 35.08 43.55 37.59 44.93 39.8C46.3 42.01 48.23 43.74 50.71 45.01C53.19 46.28 56.1 46.91 59.44 46.91C62.15 46.91 64.49 46.52 66.48 45.74C68.46 44.96 70.13 43.82 71.48 42.33L66.27 36.91C65.3 37.74 64.31 38.36 63.32 38.76C62.33 39.16 61.14 39.36 59.75 39.36C58.26 39.36 56.97 39.09 55.89 38.55C54.81 38.01 53.99 37.24 53.41 36.23C53.16 35.8 52.98 35.32 52.84 34.82H73.34C73.37 34.44 73.41 34.02 73.44 33.57C73.47 33.12 73.49 32.72 73.49 32.37C73.49 29.24 72.81 26.58 71.46 24.4C70.1 22.21 68.28 20.55 65.99 19.42M55.35 25.55C56.24 25.03 57.27 24.77 58.45 24.77C59.63 24.77 60.67 25.03 61.55 25.55C62.44 26.07 63.13 26.8 63.63 27.74C63.93 28.3 64.12 28.93 64.23 29.62H52.69C52.81 28.95 53 28.33 53.28 27.77C53.77 26.81 54.45 26.08 55.34 25.56"
            fill="white" />
        <path
            d="M97.17 20.66C96.67 20.14 96.13 19.67 95.53 19.29C93.85 18.25 91.79 17.73 89.35 17.73C86.78 17.73 84.44 18.32 82.34 19.5C80.24 20.68 78.56 22.36 77.31 24.53C76.06 26.7 75.43 29.28 75.43 32.27C75.43 35.26 76.05 37.89 77.31 40.06C78.56 42.23 80.24 43.92 82.34 45.11C84.44 46.31 86.78 46.91 89.35 46.91C91.92 46.91 93.99 46.39 95.66 45.35C96.41 44.88 97.06 44.29 97.64 43.6V46.45H107.07V7.78H97.17V20.66ZM96.55 35.94C96.03 36.97 95.32 37.74 94.44 38.26C93.55 38.78 92.55 39.04 91.44 39.04C90.33 39.04 89.28 38.78 88.39 38.26C87.5 37.74 86.8 36.97 86.28 35.94C85.76 34.92 85.5 33.69 85.5 32.27C85.5 30.85 85.76 29.64 86.28 28.65C86.8 27.66 87.5 26.9 88.39 26.38C89.28 25.86 90.29 25.6 91.44 25.6C92.59 25.6 93.55 25.86 94.44 26.38C95.32 26.9 96.03 27.66 96.55 28.65C97.07 29.64 97.33 30.85 97.33 32.27C97.33 33.69 97.07 34.92 96.55 35.94Z"
            fill="white" />
        <path
            d="M133.37 31.25C132.38 30.64 131.29 30.18 130.09 29.87C128.89 29.56 127.7 29.32 126.52 29.17C125.34 29.01 124.25 28.86 123.26 28.7C122.27 28.54 121.48 28.32 120.89 28.02C120.3 27.73 120 27.3 120 26.74C120 26.18 120.34 25.72 121.02 25.33C121.7 24.95 122.87 24.76 124.54 24.76C125.79 24.76 127.11 24.91 128.5 25.2C129.89 25.5 131.28 26.04 132.67 26.84L135.64 20.12C134.25 19.32 132.54 18.72 130.51 18.32C128.48 17.92 126.47 17.72 124.49 17.72C121.54 17.72 119.04 18.13 116.99 18.94C114.94 19.76 113.39 20.87 112.33 22.28C111.27 23.69 110.74 25.29 110.74 27.1C110.74 28.7 111.03 30.02 111.63 31.06C112.22 32.1 113.01 32.93 114 33.54C114.99 34.15 116.08 34.6 117.28 34.9C118.48 35.19 119.67 35.43 120.85 35.6C122.03 35.77 123.12 35.93 124.11 36.07C125.1 36.21 125.9 36.41 126.51 36.67C127.12 36.93 127.42 37.34 127.42 37.9C127.42 38.49 127.1 38.96 126.45 39.31C125.81 39.66 124.65 39.83 122.99 39.83C121.33 39.83 119.55 39.6 117.78 39.13C116.01 38.66 114.46 38.03 113.14 37.23L110.17 44C111.56 44.83 113.39 45.53 115.67 46.08C117.95 46.64 120.28 46.91 122.68 46.91C125.74 46.91 128.3 46.49 130.37 45.66C132.44 44.83 134 43.71 135.06 42.32C136.12 40.93 136.65 39.37 136.65 37.63C136.65 36.03 136.35 34.72 135.76 33.7C135.17 32.68 134.38 31.86 133.39 31.25"
            fill="white" />
        <path d="M149.76 18.2H139.86V46.45H149.76V18.2Z" fill="white" />
        <path
            d="M144.81 15.07C146.65 15.07 148.12 14.56 149.21 13.53C150.3 12.51 150.85 11.21 150.85 9.65C150.85 8.09 150.29 6.93 149.18 5.98C148.07 5.03 146.61 4.55 144.8 4.55C142.99 4.55 141.53 5.05 140.42 6.06C139.31 7.07 138.75 8.32 138.75 9.81C138.75 11.3 139.31 12.56 140.42 13.56C141.53 14.57 142.99 15.07 144.8 15.07"
            fill="white" />
        <path
            d="M0 0.43V11.69H24.44C24.63 11.7 25.92 11.81 27.06 12.55C27.58 12.89 29.15 13.92 29.15 17.89C29.15 20 28.71 21.5 27.85 22.35C26.77 23.41 25.01 23.51 24.66 23.52H0V34.79H24.28C24.36 34.79 24.46 34.79 24.58 34.79C26.29 34.79 31.46 34.44 35.55 30.57C37.77 28.47 40.41 24.56 40.41 17.89C40.41 8.62 35.43 4.37 32.46 2.66C28.78 0.54 25.2 0.43 24.52 0.43H0Z"
            fill="url(#paint0_radial_3_15)" />
        <path
            d="M28.8 34.55C26.07 30.88 22.67 26.31 15.6 24.35L15.41 24.3C13.45 23.83 11.86 23.52 9.4 23.52H0V34.8H9.4C11.06 34.82 11.7 35 12.69 35.23C15.81 36.12 17.34 38.02 19.76 41.27C23.25 45.96 28.02 52.38 40.41 52.57V41.3C33.71 41.16 31.85 38.66 28.79 34.55"
            fill="white" />
    </g>
    <defs>
        <radialGradient id="paint0_radial_3_15" cx="0" cy="0" r="1" gradientUnits="userSpaceOnUse"
            gradientTransform="translate(20.16 32.64) scale(22.48)">
            <stop stop-color="#570C9D" />
            <stop offset="1" stop-color="white" />
        </radialGradient>
        <clipPath id="clip0_3_15">
            <rect width="150.85" height="52.14" fill="white" transform="translate(0 0.43)" />
        </clipPath>
    </defs>
</svg>