<svg width="151" height="53" viewBox="0 0 151 53" fill="none" xmlns="http://www.w3.org/2000/svg">
<g clip-path="url(#clip0_20_51)">
<path d="M66.01 18.9898C63.72 17.8598 61.18 17.2998 58.4 17.2998C55.45 17.2998 52.79 17.9198 50.43 19.1498C48.07 20.3798 46.22 22.0998 44.88 24.3098C43.54 26.5198 42.87 29.0298 42.87 31.8398C42.87 34.6498 43.55 37.1598 44.93 39.3698C46.3 41.5798 48.23 43.3098 50.71 44.5798C53.19 45.8498 56.1 46.4798 59.44 46.4798C62.15 46.4798 64.49 46.0898 66.48 45.3098C68.46 44.5298 70.13 43.3898 71.48 41.8998L66.27 36.4798C65.3 37.3098 64.31 37.9298 63.32 38.3298C62.33 38.7298 61.14 38.9298 59.75 38.9298C58.26 38.9298 56.97 38.6598 55.89 38.1198C54.81 37.5798 53.99 36.8098 53.41 35.7998C53.16 35.3698 52.98 34.8898 52.84 34.3898H73.34C73.37 34.0098 73.41 33.5898 73.44 33.1398C73.47 32.6898 73.49 32.2898 73.49 31.9398C73.49 28.8098 72.81 26.1498 71.46 23.9698C70.1 21.7798 68.28 20.1198 65.99 18.9898M55.35 25.1198C56.24 24.5998 57.27 24.3398 58.45 24.3398C59.63 24.3398 60.67 24.5998 61.55 25.1198C62.44 25.6398 63.13 26.3698 63.63 27.3098C63.93 27.8698 64.12 28.4998 64.23 29.1898H52.69C52.81 28.5198 53 27.8998 53.28 27.3398C53.77 26.3798 54.45 25.6498 55.34 25.1298" fill="#570C9D"/>
<path d="M97.17 20.2301C96.67 19.7101 96.13 19.2401 95.53 18.8601C93.85 17.8201 91.79 17.3001 89.35 17.3001C86.78 17.3001 84.44 17.8901 82.34 19.0701C80.24 20.2501 78.56 21.9301 77.31 24.1001C76.06 26.2701 75.43 28.8501 75.43 31.8401C75.43 34.8301 76.05 37.4601 77.31 39.6301C78.56 41.8001 80.24 43.4901 82.34 44.6801C84.44 45.8801 86.78 46.4801 89.35 46.4801C91.92 46.4801 93.99 45.9601 95.66 44.9201C96.41 44.4501 97.06 43.8601 97.64 43.1701V46.0201H107.07V7.3501H97.17V20.2301ZM96.55 35.5101C96.03 36.5401 95.32 37.3101 94.44 37.8301C93.55 38.3501 92.55 38.6101 91.44 38.6101C90.33 38.6101 89.28 38.3501 88.39 37.8301C87.5 37.3101 86.8 36.5401 86.28 35.5101C85.76 34.4901 85.5 33.2601 85.5 31.8401C85.5 30.4201 85.76 29.2101 86.28 28.2201C86.8 27.2301 87.5 26.4701 88.39 25.9501C89.28 25.4301 90.29 25.1701 91.44 25.1701C92.59 25.1701 93.55 25.4301 94.44 25.9501C95.32 26.4701 96.03 27.2301 96.55 28.2201C97.07 29.2101 97.33 30.4201 97.33 31.8401C97.33 33.2601 97.07 34.4901 96.55 35.5101Z" fill="#570C9D"/>
<path d="M133.37 30.82C132.38 30.21 131.29 29.75 130.09 29.44C128.89 29.13 127.7 28.89 126.52 28.74C125.34 28.58 124.25 28.43 123.26 28.27C122.27 28.11 121.48 27.89 120.89 27.59C120.3 27.3 120 26.87 120 26.31C120 25.75 120.34 25.29 121.02 24.9C121.7 24.52 122.87 24.33 124.54 24.33C125.79 24.33 127.11 24.48 128.5 24.77C129.89 25.07 131.28 25.61 132.67 26.41L135.64 19.69C134.25 18.89 132.54 18.29 130.51 17.89C128.48 17.49 126.47 17.29 124.49 17.29C121.54 17.29 119.04 17.7 116.99 18.51C114.94 19.33 113.39 20.44 112.33 21.85C111.27 23.26 110.74 24.86 110.74 26.67C110.74 28.27 111.03 29.59 111.63 30.63C112.22 31.67 113.01 32.5 114 33.11C114.99 33.72 116.08 34.17 117.28 34.47C118.48 34.76 119.67 35 120.85 35.17C122.03 35.34 123.12 35.5 124.11 35.64C125.1 35.78 125.9 35.98 126.51 36.24C127.12 36.5 127.42 36.91 127.42 37.47C127.42 38.06 127.1 38.53 126.45 38.88C125.81 39.23 124.65 39.4 122.99 39.4C121.33 39.4 119.55 39.17 117.78 38.7C116.01 38.23 114.46 37.6 113.14 36.8L110.17 43.57C111.56 44.4 113.39 45.1 115.67 45.65C117.95 46.21 120.28 46.48 122.68 46.48C125.74 46.48 128.3 46.06 130.37 45.23C132.44 44.4 134 43.28 135.06 41.89C136.12 40.5 136.65 38.94 136.65 37.2C136.65 35.6 136.35 34.29 135.76 33.27C135.17 32.25 134.38 31.43 133.39 30.82" fill="#570C9D"/>
<path d="M149.76 17.77H139.86V46.02H149.76V17.77Z" fill="#570C9D"/>
<path d="M144.81 14.6401C146.65 14.6401 148.12 14.1301 149.21 13.1001C150.3 12.0801 150.85 10.7801 150.85 9.22012C150.85 7.66012 150.29 6.50012 149.18 5.55012C148.07 4.60012 146.61 4.12012 144.8 4.12012C142.99 4.12012 141.53 4.62012 140.42 5.63012C139.31 6.64012 138.75 7.89012 138.75 9.38012C138.75 10.8701 139.31 12.1301 140.42 13.1301C141.53 14.1401 142.99 14.6401 144.8 14.6401" fill="#570C9D"/>
<path d="M0 0V11.26H24.44C24.63 11.27 25.92 11.38 27.06 12.12C27.58 12.46 29.15 13.49 29.15 17.46C29.15 19.57 28.71 21.07 27.85 21.92C26.77 22.98 25.01 23.08 24.66 23.09H0V34.36H24.28C24.36 34.36 24.46 34.36 24.58 34.36C26.29 34.36 31.46 34.01 35.55 30.14C37.77 28.04 40.41 24.13 40.41 17.46C40.41 8.19 35.43 3.94 32.46 2.23C28.78 0.11 25.2 0 24.52 0H0Z" fill="url(#paint0_radial_20_51)"/>
<path d="M28.8 34.1198C26.07 30.4498 22.67 25.8798 15.6 23.9198L15.41 23.8698C13.45 23.3998 11.86 23.0898 9.4 23.0898H0V34.3698H9.4C11.06 34.3898 11.7 34.5698 12.69 34.7998C15.81 35.6898 17.34 37.5898 19.76 40.8398C23.25 45.5298 28.02 51.9498 40.41 52.1398V40.8698C33.71 40.7298 31.85 38.2298 28.79 34.1198" fill="#570C9D"/>
</g>
<defs>
<radialGradient id="paint0_radial_20_51" cx="0" cy="0" r="1" gradientUnits="userSpaceOnUse" gradientTransform="translate(20.16 32.21) scale(22.48)">
<stop stop-color="#FFEA00"/>
<stop offset="1" stop-color="#570C9D"/>
</radialGradient>
<clipPath id="clip0_20_51">
<rect width="150.85" height="52.14" fill="white"/>
</clipPath>
</defs>
</svg>
